<svg width="106" height="105" viewBox="0 0 106 105" fill="none" xmlns="http://www.w3.org/2000/svg">
<path fill-rule="evenodd" clip-rule="evenodd" d="M101.212 87.9024C101.902 85.8879 102.273 83.7257 102.273 81.4854C102.273 76.0322 100.073 71.0914 96.5189 67.5138C92.9646 63.9362 88.0558 61.7307 82.6381 61.7307C77.2203 61.7307 72.3115 63.9449 68.7572 67.5138C65.2029 71.0914 63.0116 76.0322 63.0116 81.4854C63.0116 86.9385 65.2115 91.8794 68.7572 95.457C72.3115 99.0345 77.2203 101.24 82.6381 101.24C87.5986 101.24 92.1278 99.3905 95.5872 96.334C98.1235 94.0937 100.116 91.1153 101.212 87.9024ZM74.5028 83.691C72.7343 84.0122 71.0089 84.6201 70.0685 86.982C69.456 88.5102 69.6027 90.3598 70.3705 92.0357C72.4582 85.6274 79.7912 89.4133 75.0722 94.936C78.523 95.1096 80.7056 92.6783 81.0507 89.4046C81.2146 87.859 81.344 87.0254 81.6805 86.3568C81.8616 85.9921 82.1118 85.6795 82.4483 85.3148C83.5784 84.0643 84.838 82.9702 86.0716 81.6764C88.3923 79.2364 93.3356 81.4854 95.2249 76.7095C95.8374 75.1812 95.6907 73.3317 94.9229 71.6558C92.8352 78.0641 85.5022 74.2782 90.2212 68.7555C86.7704 68.5819 84.5878 71.0132 84.2427 74.2868C84.096 75.7283 84.3462 76.9527 82.7589 78.5938C81.646 79.714 80.4641 80.8602 79.3167 81.9543C78.8681 82.3971 78.5402 82.6576 78.152 82.8487C77.4619 83.196 76.6164 83.3002 74.5114 83.6736L74.5028 83.691ZM74.4079 20.719L74.382 20.7972C68.8004 19.7465 60.7427 19.1994 52.2451 19.3036C43.6526 19.3991 34.5684 20.1546 27.0802 21.7002L27.0715 21.6655C20.5409 -9.24737 83.0263 -4.82752 74.4079 20.719ZM38.0882 54.2022C34.2923 56.8767 30.3325 57.8666 26.4676 58.5873L31.9976 74.3563H60.3718C59.6644 76.6053 59.2761 79.0019 59.2761 81.4854C59.2761 87.9806 61.8901 93.8592 66.1174 98.1141C70.3446 102.369 76.1851 105 82.6381 105C89.0911 105 94.9316 102.369 99.1588 98.1141C103.602 93.6421 106 87.8329 106 81.4854C106 74.9902 103.386 69.1115 99.1588 64.8567C94.9316 60.6018 89.0911 57.9708 82.6381 57.9708C80.6366 57.9708 78.6955 58.2226 76.8407 58.7002C73.4158 58.3528 69.8615 58.075 67.3338 56.7551C66.1777 56.0344 65.1684 55.0271 64.2367 53.7506L64.0728 51.1456C64.97 50.4075 65.8327 49.5392 66.566 48.5753C68.231 46.4826 68.8694 44.3292 69.6631 41.5939C69.827 41.0121 69.9823 40.439 70.1721 39.8572C71.7422 39.6922 73.1139 37.9295 73.942 35.7413C74.3907 34.5169 74.7444 33.1363 74.8393 31.9119C74.9687 30.6268 74.8393 29.4371 74.3907 28.6296C74.0369 27.987 73.4934 27.5702 72.7601 27.5007C72.7084 26.8582 72.9931 25.4949 73.3813 24.0448C68.0929 23.0896 60.4149 22.5946 52.2451 22.6901C43.8597 22.7857 34.9998 23.5151 27.7444 25.026L28.4519 28.4385C27.9084 29.3416 27.779 30.757 27.9429 32.2679C28.1068 33.7441 28.5468 35.2897 29.1938 36.5836C30.022 38.2247 31.2039 39.3796 32.5842 39.3796C32.7136 39.7617 32.8689 40.1872 32.9983 40.604C34.1198 43.921 34.948 46.4305 36.9581 48.8098C37.5361 49.5218 38.1745 50.1644 38.8474 50.7375L38.6835 53.6638C38.5023 53.8375 38.2953 54.0198 38.0882 54.2022ZM62.0627 52.1616C58.4566 54.5842 56.2567 55.9128 51.5895 55.7999C47.0517 55.7304 44.6793 54.1848 41.0473 51.875C40.7712 67.1317 62.4336 68.0435 62.0627 52.1616ZM67.4718 41.0989C67.6616 40.4216 67.8859 39.7183 68.1447 38.876C68.2396 38.52 68.5933 38.2681 68.947 38.3289C69.9995 38.52 71.0606 36.9743 71.7939 35.1074C72.208 33.9785 72.5272 32.7629 72.6221 31.6688C72.717 30.6354 72.6221 29.7411 72.3374 29.194C72.0527 28.6643 71.259 28.9682 70.6724 28.4559C67.6443 36.5402 41.2457 40.1959 30.4447 29.0638C30.0651 29.6716 29.9961 30.7657 30.1255 31.9901C30.2894 33.2752 30.669 34.6906 31.247 35.8194C31.9199 37.1393 32.7826 38.0424 33.6453 37.8166C33.999 37.7211 34.3786 37.9121 34.508 38.2681C34.7668 38.9802 34.9221 39.5272 35.1119 40.0656C40.7022 56.6161 61.9764 57.91 67.4718 41.0989ZM24.2764 79.3493C25.5273 79.3493 26.5453 80.3739 26.5453 81.633C26.5453 82.8921 25.5273 83.9167 24.2764 83.9167C23.0255 83.9167 22.0075 82.8921 22.0075 81.633C22.0161 80.3739 23.0255 79.3493 24.2764 79.3493ZM20.0578 59.7769C12.9233 61.4094 6.65142 64.9522 3.1316 80.5389L0 92.6001H16.9693V77.6734C16.9693 75.8412 18.4532 74.3476 20.2735 74.3476H23.8019C23.6552 68.5732 20.7911 62.5122 20.0578 59.7769Z" fill="#1A1A1A"/>
</svg>
