<svg width="102" height="105" viewBox="0 0 102 105" fill="none" xmlns="http://www.w3.org/2000/svg">
<path fill-rule="evenodd" clip-rule="evenodd" d="M50.8323 24.0732C69.0565 24.0732 83.8293 39.0055 83.8293 57.4219C83.8293 75.8404 69.0565 90.7706 50.8323 90.7706C32.6102 90.7706 17.8353 75.8404 17.8353 57.4219C17.8353 39.0055 32.6102 24.0732 50.8323 24.0732ZM6.43889 27.3646C5.42902 29.0165 3.2856 29.5288 1.65116 28.5102C0.0167232 27.4896 -0.490236 25.3233 0.519627 23.6715C3.73601 18.3998 7.8097 13.7145 12.569 9.81307C17.2919 5.94165 22.6515 2.86132 28.4531 0.766778C30.268 0.110952 32.2654 1.06805 32.9123 2.90231C33.5612 4.73657 32.6142 6.75529 30.7993 7.40906C25.7795 9.22029 21.0999 11.8785 16.9593 15.2708C12.8039 18.6748 9.24711 22.7636 6.43889 27.3646ZM65.2584 19.1053C63.4495 18.4351 62.5228 16.4103 63.1859 14.5842C63.847 12.7581 65.8505 11.8195 67.6573 12.4897C72.4896 14.2911 76.9468 16.9042 80.8707 20.1649C84.8209 23.446 88.2175 27.379 90.8943 31.7955C91.896 33.4556 91.3769 35.6219 89.7344 36.6343C88.0918 37.6467 85.9484 37.1221 84.9487 35.462C82.6785 31.7184 79.807 28.3834 76.452 25.5939C73.106 22.8137 69.3223 20.6204 65.2584 19.1053ZM50.8323 45.076C54.2046 45.076 57.2606 46.4594 59.4709 48.6933C61.6812 50.9272 63.048 54.0137 63.048 57.4219C63.048 60.8322 61.6812 63.9187 59.4709 66.1526C57.2606 68.3865 54.2046 69.7699 50.8323 69.7699C47.46 69.7699 44.4061 68.3865 42.1958 66.1526C39.9834 63.9187 38.6166 60.8322 38.6166 57.4219C38.6166 54.0137 39.9834 50.9272 42.1958 48.6933C44.4061 46.4594 47.46 45.076 50.8323 45.076ZM55.6444 52.5586C55.013 51.9192 54.2629 51.4123 53.4371 51.0669C52.6113 50.7215 51.726 50.5445 50.8323 50.546C48.9545 50.546 47.2512 51.3145 46.0203 52.5586C44.7894 53.8046 44.0289 55.5241 44.0289 57.4219C44.0289 59.3218 44.7894 61.0412 46.0203 62.2853C47.2512 63.5293 48.9545 64.2999 50.8323 64.2999C52.7121 64.2999 54.4135 63.5293 55.6444 62.2853C56.8753 61.0412 57.6377 59.3218 57.6377 57.4219C57.6377 55.5241 56.8753 53.8046 55.6444 52.5586Z" fill="#1A1A1A"/>
<path d="M70.8633 6.82702C69.0565 6.16504 68.1217 4.14838 68.7767 2.32026C69.4316 0.4942 71.4291 -0.450599 73.2359 0.211375C79.0193 2.34896 84.3444 5.45593 89.0185 9.33555C93.7333 13.25 97.7808 17.9453 100.958 23.2206C101.96 24.8786 101.441 27.0449 99.8005 28.0573C98.158 29.0697 96.0146 28.5451 95.0128 26.885C92.2395 22.2841 88.7201 18.1874 84.6019 14.7666C80.4977 11.3567 75.8527 8.67232 70.8633 6.82702ZM16.501 35.7756C15.5074 37.4438 13.364 37.9808 11.7153 36.9745C10.0647 35.9703 9.53539 33.804 10.529 32.1378C13.1733 27.7212 16.5456 23.776 20.4817 20.4661C24.3812 17.187 28.814 14.5535 33.6241 12.7253C35.4248 12.0408 37.4344 12.959 38.1117 14.7789C38.789 16.5988 37.8785 18.6278 36.0798 19.3143C32.026 20.8542 28.2561 23.0696 24.9267 25.8685C21.6173 28.6517 18.7621 32.0005 16.501 35.7756Z" fill="#1A1A1A"/>
<path fill-rule="evenodd" clip-rule="evenodd" d="M22.8745 83.78C38.1766 100.223 62.6465 99.901 78.3987 83.6918C79.9216 82.126 85.2123 84.0833 85.2123 86.2782V92.1376C87.1712 91.6478 88.8563 91.0391 90.2859 90.328C93.0357 88.9589 94.8019 87.223 95.7205 85.2228C96.6452 83.2122 96.775 80.839 96.2376 78.228C95.8625 76.4019 95.1649 74.4652 94.1855 72.4567C94.1246 72.3317 94.0739 72.2046 94.0334 72.0755C93.7008 72.1267 93.3581 72.1534 93.0093 72.1534C89.2294 72.1534 86.1654 69.0567 86.1654 65.2344C86.1654 61.4142 89.2294 58.3175 93.0093 58.3175C96.7892 58.3175 99.8553 61.4142 99.8553 65.2344C99.8553 66.7531 99.3706 68.1549 98.5514 69.2964C98.7562 69.5014 98.9306 69.7453 99.0644 70.022C100.245 72.4444 101.094 74.8197 101.565 77.109C102.339 80.8718 102.104 84.3989 100.664 87.5264C99.2206 90.6641 96.6249 93.3038 92.695 95.2589C90.5982 96.3021 88.1121 97.1526 85.2123 97.7798V101.01C85.2123 103.205 83.4359 105 81.2641 105H20.5303C18.3585 105 16.5821 103.205 16.5821 101.01V86.2782C16.5821 84.0833 21.3861 82.1814 22.8745 83.78Z" fill="#1A1A1A"/>
</svg>
