<svg width="112" height="105" viewBox="0 0 112 105" fill="none" xmlns="http://www.w3.org/2000/svg">
<path fill-rule="evenodd" clip-rule="evenodd" d="M0 105H29.2214V68.6039C29.2214 68.3646 29.2487 68.1253 29.3034 67.8951C4.96745 71.4022 6.20703 82.7426 0 105ZM37.0599 31.407V35.9911L38.6094 38.1358C38.8464 38.458 38.974 38.8354 38.9922 39.2128H39.0013C39.5573 47.175 41.6628 52.1272 44.8164 55.2384C47.888 58.2668 52.0807 59.6568 56.8568 60.43C62.0156 59.5739 66.0625 57.3924 68.9427 53.9682C71.9414 50.4059 73.7643 45.4445 74.3294 39.1852C74.3568 38.863 74.457 38.5684 74.612 38.3107L75.9883 36.0095L76.0156 31.2413L80.0807 31.2598L80.0534 36.4605C80.0807 36.8655 79.9896 37.2889 79.7617 37.6663L78.3307 40.0596C77.6289 46.9541 75.5052 52.5138 72.0326 56.6376C68.4414 60.8994 63.4831 63.5689 57.2122 64.5538C56.9935 64.5906 56.7747 64.5998 56.5469 64.563C50.8867 63.6885 45.8464 62.0132 41.9727 58.1932C38.1992 54.4744 35.6745 48.8319 34.9727 40.0872L33.487 38.0253C33.168 37.6571 32.9766 37.1785 32.9766 36.6538V31.4162H37.0599V31.407ZM55.7448 0C57.6953 0 59.5911 0.202507 61.4232 0.589112L61.0768 17.0935L67.0286 2.41168C75.4141 6.17647 81.612 14.0006 83.1706 23.4172H86.388V27.274H83.5443C83.5443 27.2924 83.5443 27.3109 83.5443 27.3293H27.9362C27.9362 27.3109 27.9362 27.2924 27.9362 27.274H25.612V23.4172H28.3099C29.9232 13.6969 36.4766 5.6702 45.2813 2.06189L50.4857 16.8449L51.0326 0.405014C52.5638 0.138073 54.1406 0 55.7448 0ZM52.8919 91.8002H59.099V98.0687H52.8919V91.8002ZM52.8919 76.2992H59.099V82.5677H52.8919V76.2992ZM34.9544 105H77.0456V68.6039C77.0456 68.1529 77.1458 67.7203 77.3372 67.3429L56 67.4717L34.6628 67.3429C34.8451 67.7203 34.9544 68.1529 34.9544 68.6039V105ZM112 105C105.793 82.7426 107.033 71.4022 82.6875 67.9044C82.7422 68.1345 82.7695 68.3646 82.7695 68.6131V105H112Z" fill="#1A1A1A"/>
</svg>
