<svg width="132" height="118" viewBox="0 0 132 118" fill="none" xmlns="http://www.w3.org/2000/svg">
<path d="M67.4208 64.0012C71.5458 65.1535 75.3729 67.0895 78.7646 69.6937L115.775 57.2945C117.7 56.6492 118.731 54.552 118.09 52.6391L104.248 10.8781C103.606 8.94219 101.521 7.90508 99.6188 8.55039L85.6167 13.252L93.2021 36.1605L79.2917 40.793L71.7062 17.8844L57.5896 22.609C55.6646 23.2543 54.6333 25.3516 55.275 27.2645L67.4208 64.0012ZM131.817 75.225L129.479 68.2188C128.837 66.2828 126.752 65.2457 124.85 65.891L75.9229 82.3004C71.9812 77.2301 65.9312 73.9113 59.0792 73.773L36.3 5.04727C35.2917 2.02812 32.4958 0 29.3333 0H3.66667C1.65 0 0 1.65937 0 3.6875V11.0625C0 13.0906 1.65 14.75 3.66667 14.75H24.0396L45.1688 78.5207C39.1875 83.2223 35.6125 90.8738 36.9188 99.3781C38.3167 108.459 45.6042 116.041 54.6333 117.631C68.4292 120.097 80.3687 109.611 80.6208 96.2898L129.502 79.8805C131.404 79.2352 132.458 77.1609 131.817 75.225ZM58.6667 106.938C52.5937 106.938 47.6667 101.982 47.6667 95.875C47.6667 89.7676 52.5937 84.8125 58.6667 84.8125C64.7396 84.8125 69.6667 89.7676 69.6667 95.875C69.6667 101.982 64.7396 106.938 58.6667 106.938Z" fill="#1A1A1A"/>
</svg>
