<svg width="111" height="104" viewBox="0 0 111 104" fill="none" xmlns="http://www.w3.org/2000/svg">
<path d="M108.969 85.1875H2.03125C1.54226 85.1875 1.07329 84.9932 0.727522 84.6475C0.381752 84.3017 0.1875 83.8327 0.1875 83.3438V2.21875C0.1875 1.72976 0.381752 1.26079 0.727522 0.915022C1.07329 0.569252 1.54226 0.375 2.03125 0.375H108.969C109.458 0.375 109.927 0.569252 110.272 0.915022C110.618 1.26079 110.812 1.72976 110.812 2.21875V83.3438C110.812 83.8327 110.618 84.3017 110.272 84.6475C109.927 84.9932 109.458 85.1875 108.969 85.1875Z" fill="#1A1A1A"/>
<path d="M43.6687 81.5L33.0358 91.9633C32.7814 92.2123 32.6005 92.5266 32.513 92.8717C32.4255 93.2168 32.4348 93.5793 32.5398 93.9195C32.6471 94.2613 32.845 94.5677 33.1125 94.806C33.38 95.0443 33.7071 95.2056 34.059 95.2728L39.7747 96.3791L40.9436 102.052C41.0168 102.402 41.1836 102.724 41.4262 102.986C41.6688 103.248 41.9781 103.439 42.3209 103.538C42.6648 103.642 43.03 103.651 43.3786 103.565C43.7272 103.479 44.0464 103.301 44.3029 103.05L56.4219 91.1207C53.6969 90.6126 51.1269 89.4793 48.914 87.81C46.7011 86.1406 44.9056 83.9807 43.6687 81.5Z" fill="#1A1A1A"/>
<path d="M67.3313 81.5L77.9642 91.9633C78.2186 92.2123 78.3995 92.5266 78.487 92.8717C78.5745 93.2168 78.5652 93.5793 78.4602 93.9195C78.3529 94.2613 78.155 94.5677 77.8875 94.806C77.62 95.0443 77.2929 95.2056 76.941 95.2728L71.2253 96.3791L70.0656 102.054C69.9925 102.403 69.8256 102.726 69.583 102.988C69.3404 103.25 69.0311 103.441 68.6883 103.54C68.3445 103.643 67.9792 103.653 67.6306 103.567C67.282 103.481 66.9628 103.303 66.7063 103.052L54.5781 91.1207C57.3031 90.6126 59.8731 89.4793 62.086 87.81C64.2989 86.1406 66.0944 83.9807 67.3313 81.5Z" fill="#1A1A1A"/>
<path d="M101.594 77.8125H9.40625C8.91726 77.8125 8.44829 77.6182 8.10252 77.2725C7.75675 76.9267 7.5625 76.4577 7.5625 75.9688V9.59375C7.5625 9.10476 7.75675 8.63579 8.10252 8.29002C8.44829 7.94425 8.91726 7.75 9.40625 7.75H101.594C102.083 7.75 102.552 7.94425 102.897 8.29002C103.243 8.63579 103.438 9.10476 103.438 9.59375V75.9688C103.438 76.4577 103.243 76.9267 102.897 77.2725C102.552 77.6182 102.083 77.8125 101.594 77.8125Z" fill="#FDFEFF"/>
<path d="M35.3128 77.8125C35.5468 80.3858 36.2748 82.8899 37.4571 85.1875H73.5429C74.7252 82.8899 75.4532 80.3858 75.6872 77.8125H35.3128Z" fill="#1A1A1A"/>
<path d="M75.7812 75.9688C75.7812 70.5898 73.6445 65.4312 69.841 61.6277C66.0375 57.8243 60.8789 55.6875 55.5 55.6875C50.1211 55.6875 44.9625 57.8243 41.159 61.6277C37.3555 65.4312 35.2188 70.5898 35.2188 75.9688C35.2188 76.5919 35.2575 77.2041 35.3128 77.8125H75.6909C75.7425 77.2041 75.7812 76.5919 75.7812 75.9688Z" fill="#DFEAEF"/>
<path d="M11.25 75.9688V9.59375C11.25 9.10476 11.4443 8.63579 11.79 8.29002C12.1358 7.94425 12.6048 7.75 13.0938 7.75H9.40625C8.91726 7.75 8.44829 7.94425 8.10252 8.29002C7.75675 8.63579 7.5625 9.10476 7.5625 9.59375V75.9688C7.5625 76.4577 7.75675 76.9267 8.10252 77.2725C8.44829 77.6182 8.91726 77.8125 9.40625 77.8125H13.0938C12.6048 77.8125 12.1358 77.6182 11.79 77.2725C11.4443 76.9267 11.25 76.4577 11.25 75.9688Z" fill="#DFEAEF"/>
<path d="M55.5 92.5625C52.2181 92.5625 49.0098 91.5893 46.281 89.766C43.5522 87.9426 41.4253 85.351 40.1694 82.3189C38.9134 79.2868 38.5848 75.9503 39.2251 72.7315C39.8654 69.5126 41.4458 66.5559 43.7665 64.2352C46.0871 61.9145 49.0439 60.3341 52.2627 59.6939C55.4816 59.0536 58.818 59.3822 61.8502 60.6381C64.8823 61.8941 67.4739 64.0209 69.2972 66.7498C71.1206 69.4786 72.0938 72.6868 72.0938 75.9688C72.0889 80.3682 70.339 84.586 67.2282 87.6969C64.1173 90.8078 59.8994 92.5576 55.5 92.5625Z" fill="#1A1A1A"/>
<path d="M59.1875 88.875C56.128 88.8805 53.1267 88.0385 50.5165 86.4424C47.9063 84.8462 45.7892 82.5584 44.3999 79.8325C43.0106 77.1066 42.4034 74.0491 42.6457 70.9992C42.8879 67.9493 43.9702 65.026 45.7724 62.5536C43.8273 63.959 42.2106 65.77 41.034 67.8614C39.8574 69.9528 39.1489 72.2747 38.9574 74.6667C38.766 77.0587 39.0963 79.4638 39.9254 81.7156C40.7545 83.9675 42.0626 86.0125 43.7594 87.7093C45.4562 89.4062 47.5013 90.7143 49.7531 91.5434C52.005 92.3725 54.4101 92.7027 56.8021 92.5113C59.1941 92.3199 61.516 91.6114 63.6074 90.4348C65.6988 89.2582 67.5097 87.6415 68.9151 85.6964C66.0917 87.7607 62.6851 88.8739 59.1875 88.875Z" fill="#1A1A1A"/>
<path d="M55.5 83.3438C59.5731 83.3438 62.875 80.0419 62.875 75.9688C62.875 71.8956 59.5731 68.5938 55.5 68.5938C51.4269 68.5938 48.125 71.8956 48.125 75.9688C48.125 80.0419 51.4269 83.3438 55.5 83.3438Z" fill="#FDFEFF"/>
<path d="M59.1875 79.6563C57.2315 79.6563 55.3557 78.8792 53.9726 77.4962C52.5895 76.1131 51.8125 74.2372 51.8125 72.2813C51.8153 71.2375 52.0416 70.2065 52.4762 69.2575C51.3874 69.7458 50.4335 70.4914 49.6967 71.43C48.9598 72.3686 48.462 73.4722 48.2462 74.6458C48.0303 75.8195 48.1028 77.028 48.4574 78.1674C48.8121 79.3068 49.4382 80.3429 50.282 81.1867C51.1258 82.0305 52.162 82.6567 53.3014 83.0113C54.4408 83.366 55.6493 83.4385 56.8229 83.2226C57.9965 83.0067 59.1001 82.5089 60.0387 81.7721C60.9774 81.0352 61.7229 80.0813 62.2112 78.9925C61.2623 79.4271 60.2312 79.6535 59.1875 79.6563Z" fill="#FDFEFF"/>
<path d="M81.3125 22.5H29.6875V26.1875H81.3125V22.5Z" fill="#DFEAEF"/>
<path d="M81.3125 29.875H29.6875V33.5625H81.3125V29.875Z" fill="#DFEAEF"/>
<path d="M81.3125 37.25H29.6875V40.9375H81.3125V37.25Z" fill="#DFEAEF"/>
<path d="M81.3125 44.625H55.5V48.3125H81.3125V44.625Z" fill="#DFEAEF"/>
<path d="M81.3125 52H66.5625V55.6875H81.3125V52Z" fill="#DFEAEF"/>
</svg>
