<svg width="92" height="112" viewBox="0 0 92 112" fill="none" xmlns="http://www.w3.org/2000/svg">
<path d="M69.1538 81.332L69.1407 81.3688C67.8443 85.0648 66.2309 89.6648 61.7942 91.1055C61.008 91.3593 60.1867 91.4876 59.3605 91.4857C56.1419 91.4857 53.3908 89.6854 50.741 87.8668L57.3525 110.171C57.4841 110.615 57.7413 111.012 58.0932 111.313C58.4451 111.614 58.8766 111.807 59.3356 111.868C59.7947 111.93 60.2617 111.857 60.6804 111.659C61.0991 111.461 61.4516 111.146 61.6954 110.753L66.4394 103.094C66.6961 102.679 67.0729 102.353 67.5197 102.158C67.9665 101.963 68.4622 101.908 68.9406 102.002L77.7821 103.73C78.2366 103.819 78.7072 103.774 79.137 103.602C79.5668 103.429 79.9376 103.136 80.2045 102.758C80.4715 102.379 80.6234 101.932 80.6417 101.469C80.6601 101.006 80.5442 100.548 80.3081 100.15L69.1538 81.332Z" fill="#1A1A1A"/>
<path d="M33.3328 91.4855C32.5067 91.4874 31.6854 91.3592 30.8991 91.1055C26.8069 89.7764 25.1221 85.7666 23.8672 82.2507L13.2572 100.15C13.021 100.548 12.9051 101.006 12.9235 101.469C12.9419 101.932 13.0937 102.38 13.3607 102.758C13.6277 103.136 13.9984 103.429 14.4283 103.602C14.8581 103.774 15.3286 103.819 15.7831 103.73L24.6248 102.002C25.1033 101.908 25.5989 101.963 26.0457 102.158C26.4925 102.353 26.8693 102.679 27.126 103.094L31.8696 110.753C32.1134 111.146 32.4659 111.461 32.8845 111.659C33.3032 111.857 33.7702 111.93 34.2292 111.868C34.6882 111.807 35.1196 111.614 35.4714 111.313C35.8233 111.012 36.0805 110.615 36.212 110.171L43.0452 87.1199C42.7815 87.2987 42.5274 87.4724 42.3054 87.6253C39.5466 89.5238 36.6934 91.4855 33.3328 91.4855Z" fill="#1A1A1A"/>
<path d="M91.719 43.559C91.719 39.1099 82.957 36.1005 81.6533 32.0859C80.3022 27.9255 85.5751 20.3494 83.0545 16.8863C80.5089 13.3885 71.6576 16.075 68.16 13.5306C64.6967 11.0099 64.5318 1.74907 60.3712 0.3976C56.3565 -0.906116 50.7961 6.44694 46.3469 6.44694C41.8978 6.44694 36.3381 -0.905931 32.3237 0.397784C28.1631 1.74852 27.9981 11.0099 24.535 13.5304C21.0374 16.0757 12.1861 13.3887 9.64046 16.8861C7.12005 20.349 12.3926 27.9253 11.0417 32.0859C9.73818 36.1007 0.975754 39.1106 0.975754 43.5594C0.975754 48.0082 9.73817 51.0179 11.0426 55.0323C12.3935 59.1928 7.12116 66.7689 9.64138 70.232C12.1869 73.7298 21.038 71.0433 24.5357 73.5877C27.9987 76.1082 28.1637 85.3692 32.3245 86.7207C36.3392 88.0242 41.8994 80.6713 46.349 80.6713C50.7985 80.6713 56.3581 88.0242 60.3727 86.7209C64.5329 85.3698 64.6981 76.1084 68.1613 73.5882C71.659 71.0427 80.5101 73.7298 83.0558 70.2326C85.5764 66.7695 80.3038 59.1933 81.6546 55.0327C82.9566 51.0183 91.719 48.0089 91.719 43.559ZM46.3586 67.7518C41.5738 67.7518 36.8965 66.333 32.9181 63.6747C28.9398 61.0165 25.839 57.2382 24.0079 52.8177C22.1768 48.3972 21.6977 43.533 22.6311 38.8401C23.5646 34.1473 25.8686 29.8367 29.2519 26.4533C32.6352 23.07 36.9458 20.7658 41.6385 19.8323C46.3313 18.8988 51.1956 19.3778 55.6161 21.2088C60.0367 23.0397 63.815 26.1404 66.4734 30.1187C69.1317 34.097 70.5507 38.7743 70.5508 43.559C70.5508 46.7361 69.9251 49.882 68.7094 52.8172C67.4936 55.7523 65.7116 58.4193 63.4652 60.6658C61.2187 62.9123 58.5518 64.6944 55.6166 65.9102C52.6814 67.126 49.5356 67.7518 46.3586 67.7518Z" fill="#1A1A1A"/>
<path d="M56.983 37.7312H52.4415C51.9207 37.7312 51.4132 37.5663 50.9919 37.2602C50.5706 36.9541 50.2569 36.5225 50.096 36.0272L48.6926 31.7078C48.5316 31.2125 48.218 30.7809 47.7966 30.4748C47.3753 30.1688 46.8679 30.0039 46.3471 30.0039C45.8263 30.0039 45.3189 30.1688 44.8976 30.4748C44.4763 30.7809 44.1627 31.2125 44.0017 31.7078L42.5984 36.0272C42.4375 36.5225 42.1238 36.9541 41.7025 37.2602C41.2812 37.5663 40.7738 37.7312 40.253 37.7312H35.7114C35.1905 37.7309 34.6828 37.8957 34.2612 38.2018C33.8397 38.508 33.5259 38.9397 33.3649 39.4352C33.2039 39.9307 33.204 40.4645 33.3652 40.9599C33.5263 41.4554 33.8402 41.887 34.2619 42.193L37.9361 44.8628C38.3574 45.1689 38.6709 45.6006 38.8318 46.0959C38.9927 46.5911 38.9927 47.1247 38.8318 47.6199L37.4283 51.9391C37.2678 52.4343 37.2681 52.9677 37.4291 53.4628C37.5902 53.9578 37.9038 54.3892 38.3251 54.6952C38.7463 55.0011 39.2536 55.1659 39.7742 55.1659C40.2948 55.1659 40.8021 55.0012 41.2233 54.6953L44.8981 52.0261C45.3194 51.7199 45.8269 51.555 46.3477 51.555C46.8685 51.555 47.3759 51.7199 47.7972 52.0261L51.4709 54.6953C51.8923 55.0013 52.3997 55.1661 52.9204 55.1661C53.4412 55.166 53.9485 55.0011 54.3698 54.695C54.7911 54.3889 55.1047 53.9573 55.2656 53.462C55.4265 52.9668 55.4266 52.4333 55.2657 51.938L53.8622 47.6188C53.7014 47.1235 53.7015 46.59 53.8625 46.0947C54.0234 45.5994 54.337 45.1678 54.7583 44.8617L58.4325 42.1919C58.8537 41.8858 59.1672 41.4542 59.3281 40.9589C59.4889 40.4637 59.4889 39.9303 59.3279 39.4351C59.167 38.9399 58.8535 38.5083 58.4322 38.2022C58.011 37.8961 57.5037 37.7312 56.983 37.7312Z" fill="#1A1A1A"/>
</svg>
