<svg width="106" height="105" fill="none" xmlns="http://www.w3.org/2000/svg"><path fill-rule="evenodd" clip-rule="evenodd" d="M101.212 87.902a19.782 19.782 0 001.061-6.417c0-5.453-2.2-10.394-5.754-13.971a19.502 19.502 0 00-13.88-5.783c-5.419 0-10.328 2.214-13.882 5.783a19.76 19.76 0 00-5.745 13.971c0 5.454 2.2 10.394 5.745 13.972a19.503 19.503 0 0013.881 5.783c4.96 0 9.49-1.85 12.95-4.906a20.03 20.03 0 005.624-8.432zm-26.71-4.211c-1.768.321-3.493.93-4.433 3.291-.613 1.528-.466 3.378.302 5.054 2.087-6.409 9.42-2.623 4.701 2.9 3.451.174 5.634-2.258 5.979-5.531.164-1.546.293-2.38.63-3.048.18-.365.43-.677.767-1.042 1.13-1.25 2.39-2.345 3.624-3.639 2.32-2.44 7.264-.19 9.153-4.966.612-1.529.466-3.378-.302-5.054-2.088 6.408-9.42 2.622-4.702-2.9-3.45-.174-5.633 2.257-5.978 5.53-.147 1.442.103 2.667-1.484 4.308a180.34 180.34 0 01-3.442 3.36c-.449.443-.777.704-1.165.895-.69.347-1.536.451-3.64.825l-.01.017zm-.094-62.972l-.026.078c-5.582-1.05-13.64-1.598-22.137-1.493-8.592.095-17.677.85-25.165 2.396l-.008-.034C20.54-9.247 83.025-4.828 74.407 20.719zm-36.32 33.483c-3.796 2.675-7.756 3.665-11.62 4.385l5.53 15.77h28.374a23.734 23.734 0 00-1.096 7.128 23.518 23.518 0 006.841 16.63C70.345 102.368 76.185 105 82.638 105c6.453 0 12.294-2.631 16.52-6.886C103.603 93.642 106 87.833 106 81.485a23.518 23.518 0 00-6.841-16.628c-4.227-4.255-10.068-6.886-16.52-6.886-2.002 0-3.944.252-5.798.73-3.425-.348-6.98-.626-9.507-1.946-1.156-.72-2.166-1.728-3.097-3.004l-.164-2.605a15.6 15.6 0 002.493-2.57c1.665-2.093 2.303-4.247 3.097-6.982.164-.582.32-1.155.51-1.737 1.57-.165 2.94-1.928 3.769-4.116.449-1.224.802-2.605.897-3.83.13-1.284 0-2.474-.448-3.281-.354-.643-.898-1.06-1.63-1.13-.053-.642.232-2.005.62-3.455-5.288-.955-12.966-1.45-21.136-1.355-8.385.096-17.245.825-24.5 2.336l.707 3.413c-.544.903-.673 2.318-.51 3.829.165 1.476.605 3.022 1.252 4.316.828 1.64 2.01 2.796 3.39 2.796.13.382.285.807.414 1.224 1.122 3.317 1.95 5.827 3.96 8.206a14.748 14.748 0 001.89 1.927l-.164 2.927c-.182.173-.389.356-.596.538zm23.975-2.04c-3.606 2.422-5.806 3.75-10.474 3.638-4.537-.07-6.91-1.615-10.542-3.925-.276 15.257 21.387 16.168 21.016.287zm5.409-11.063c.19-.677.414-1.38.673-2.223.095-.356.448-.608.802-.547 1.052.191 2.114-1.355 2.847-3.222.414-1.129.733-2.344.828-3.438.095-1.034 0-1.928-.285-2.475-.284-.53-1.078-.226-1.665-.738-3.028 8.084-29.426 11.74-40.227.608-.38.608-.449 1.702-.32 2.926.164 1.285.544 2.7 1.122 3.83.673 1.32 1.536 2.222 2.398 1.997a.721.721 0 01.863.451c.259.712.414 1.26.604 1.798 5.59 16.55 26.864 17.844 32.36 1.033zm-43.196 38.25a2.28 2.28 0 012.27 2.284 2.28 2.28 0 01-2.27 2.284 2.28 2.28 0 01-2.268-2.284c.008-1.26 1.018-2.284 2.268-2.284zm-4.218-19.572C12.923 61.409 6.65 64.952 3.132 80.539L0 92.6h16.97V77.673c0-1.832 1.483-3.325 3.303-3.325h3.529c-.147-5.775-3.01-11.836-3.744-14.571z" fill="#1A1A1A"/></svg>