<svg width="102" height="105" fill="none" xmlns="http://www.w3.org/2000/svg"><path fill-rule="evenodd" clip-rule="evenodd" d="M50.832 24.073c18.224 0 32.997 14.932 32.997 33.349 0 18.418-14.772 33.349-32.997 33.349-18.222 0-32.997-14.93-32.997-33.35 0-18.416 14.775-33.348 32.997-33.348zM6.44 27.365a3.46 3.46 0 01-4.79 1.145C.017 27.49-.49 25.323.52 23.672A54.866 54.866 0 0112.569 9.813 53.992 53.992 0 0128.453.767c1.815-.656 3.812.301 4.46 2.135.648 1.835-.299 3.853-2.114 4.507a47.023 47.023 0 00-13.84 7.862A47.865 47.865 0 006.44 27.365zm58.82-8.26c-1.81-.67-2.736-2.695-2.073-4.52.661-1.827 2.664-2.766 4.471-2.095a45.623 45.623 0 0113.214 7.675 46.386 46.386 0 0110.023 11.63c1.002 1.66.483 3.827-1.16 4.84a3.46 3.46 0 01-4.785-1.173 39.399 39.399 0 00-8.497-9.868 38.635 38.635 0 00-11.194-6.489zM50.831 45.076c3.373 0 6.429 1.383 8.639 3.617a12.372 12.372 0 013.577 8.729c0 3.41-1.367 6.497-3.577 8.73a12.119 12.119 0 01-17.275 0 12.367 12.367 0 01-3.58-8.73c0-3.408 1.367-6.495 3.58-8.729a12.114 12.114 0 018.636-3.617zm4.812 7.483a6.779 6.779 0 00-2.207-1.492 6.72 6.72 0 00-2.605-.521 6.75 6.75 0 00-4.812 2.013 6.9 6.9 0 00-1.991 4.863c0 1.9.76 3.62 1.991 4.863a6.752 6.752 0 009.624 0 6.894 6.894 0 001.994-4.863 6.9 6.9 0 00-1.994-4.863z" fill="#1A1A1A"/><path d="M70.863 6.827c-1.806-.662-2.741-2.679-2.086-4.507.655-1.826 2.652-2.77 4.459-2.109a54.076 54.076 0 0115.782 9.125 54.83 54.83 0 0111.94 13.885c1.002 1.658.483 3.824-1.157 4.836a3.462 3.462 0 01-4.788-1.172 47.89 47.89 0 00-10.411-12.118 47.027 47.027 0 00-13.739-7.94zM16.501 35.776a3.463 3.463 0 01-4.786 1.198c-1.65-1.004-2.18-3.17-1.186-4.836a46.425 46.425 0 019.953-11.672 45.61 45.61 0 0113.142-7.74c1.8-.685 3.81.233 4.488 2.053.677 1.82-.233 3.849-2.032 4.535a38.678 38.678 0 00-11.153 6.555 39.391 39.391 0 00-8.426 9.907z" fill="#1A1A1A"/><path fill-rule="evenodd" clip-rule="evenodd" d="M22.875 83.78c15.302 16.443 39.772 16.121 55.524-.088 1.523-1.566 6.813.391 6.813 2.586v5.86c1.96-.49 3.644-1.099 5.074-1.81 2.75-1.37 4.516-3.105 5.434-5.105.925-2.01 1.055-4.384.518-6.995-.376-1.826-1.073-3.763-2.052-5.771a2.747 2.747 0 01-.153-.381 6.735 6.735 0 01-1.024.077c-3.78 0-6.844-3.096-6.844-6.919 0-3.82 3.064-6.916 6.844-6.916 3.78 0 6.846 3.096 6.846 6.916 0 1.52-.484 2.92-1.304 4.062.205.205.38.45.513.726 1.181 2.422 2.03 4.798 2.501 7.087.774 3.763.539 7.29-.901 10.417-1.443 3.138-4.04 5.778-7.969 7.733-2.097 1.043-4.583 1.894-7.483 2.52v3.231c0 2.195-1.776 3.99-3.948 3.99H20.53c-2.172 0-3.948-1.795-3.948-3.99V86.278c0-2.195 4.804-4.097 6.293-2.498z" fill="#1A1A1A"/></svg>