<svg width="112" height="105" fill="none" xmlns="http://www.w3.org/2000/svg"><path fill-rule="evenodd" clip-rule="evenodd" d="M0 105h29.221V68.604c0-.24.028-.479.082-.709C4.967 71.402 6.207 82.743 0 105zm37.06-73.593v4.584l1.55 2.145c.236.322.364.7.382 1.077h.01c.555 7.962 2.66 12.914 5.814 16.025 3.072 3.029 7.265 4.419 12.04 5.192 5.16-.856 9.206-3.038 12.087-6.462 2.998-3.562 4.821-8.524 5.386-14.783.028-.322.128-.617.283-.874l1.376-2.301.028-4.769 4.065.019-.028 5.2c.028.405-.063.829-.291 1.206L78.33 40.06c-.702 6.894-2.826 12.454-6.298 16.578-3.592 4.261-8.55 6.93-14.82 7.916a2.015 2.015 0 01-.666.009c-5.66-.875-10.7-2.55-14.574-6.37-3.774-3.719-6.298-9.361-7-18.106l-1.486-2.062a2.085 2.085 0 01-.51-1.371v-5.238h4.083v-.009zM55.745 0c1.95 0 3.846.203 5.678.59l-.346 16.503 5.952-14.681C75.414 6.176 81.612 14 83.17 23.417h3.217v3.857h-2.844v.055H27.936v-.055h-2.324v-3.857h2.698c1.613-9.72 8.167-17.747 16.971-21.355l5.205 14.783.547-16.44A27.44 27.44 0 0155.745 0zm-2.853 91.8h6.207v6.269h-6.207V91.8zm0-15.5h6.207v6.268h-6.207v-6.269zM34.954 105h42.092V68.604c0-.451.1-.884.291-1.261L56 67.472l-21.337-.13c.182.378.291.81.291 1.262V105zM112 105c-6.207-22.257-4.967-33.598-29.313-37.096a3 3 0 01.082.71V105H112z" fill="#1A1A1A"/></svg>