<svg width="132" height="118" fill="none" xmlns="http://www.w3.org/2000/svg"><path d="M67.42 64.001a33.316 33.316 0 0111.345 5.693l37.01-12.4a3.685 3.685 0 002.315-4.655l-13.842-41.76c-.642-1.937-2.727-2.974-4.63-2.329l-14.001 4.702 7.585 22.908-13.91 4.633-7.586-22.909L57.59 22.61a3.684 3.684 0 00-2.315 4.655l12.146 36.737zm64.397 11.224l-2.338-7.006c-.642-1.936-2.727-2.973-4.629-2.328l-48.927 16.41c-3.942-5.07-9.992-8.39-16.844-8.528L36.3 5.047C35.292 2.028 32.496 0 29.333 0H3.667C1.65 0 0 1.66 0 3.688v7.374c0 2.029 1.65 3.688 3.667 3.688H24.04l21.129 63.77c-5.981 4.702-9.556 12.354-8.25 20.858 1.398 9.081 8.685 16.663 17.714 18.253 13.796 2.466 25.736-8.02 25.988-21.341l48.881-16.41a3.695 3.695 0 002.315-4.655zm-73.15 31.713c-6.073 0-11-4.956-11-11.063s4.927-11.063 11-11.063 11 4.956 11 11.063-4.927 11.063-11 11.063z" fill="#1A1A1A"/></svg>