<svg width="111" height="104" fill="none" xmlns="http://www.w3.org/2000/svg"><path d="M108.969 85.188H2.031a1.844 1.844 0 01-1.844-1.844V2.219A1.844 1.844 0 012.032.375H108.97a1.84 1.84 0 011.843 1.844v81.125a1.843 1.843 0 01-1.843 1.844z" fill="#1A1A1A"/><path d="M43.669 81.5L33.036 91.963a1.937 1.937 0 00.076 2.843c.268.238.595.4.947.467l5.716 1.106 1.169 5.673a1.966 1.966 0 001.377 1.486 1.999 1.999 0 001.982-.488l12.119-11.93a17.922 17.922 0 01-12.753-9.62z" fill="#1A1A1A"/><path d="M67.331 81.5l10.633 10.463a1.937 1.937 0 01-.076 2.843c-.268.238-.595.4-.947.467l-5.716 1.106-1.16 5.675a1.97 1.97 0 01-1.377 1.486 2.01 2.01 0 01-1.982-.488L54.578 91.121A17.922 17.922 0 0067.331 81.5z" fill="#1A1A1A"/><path d="M101.594 77.813H9.406a1.844 1.844 0 01-1.844-1.844V9.594A1.844 1.844 0 019.406 7.75h92.188a1.844 1.844 0 011.844 1.844v66.375a1.844 1.844 0 01-1.844 1.844z" fill="#FDFEFF"/><path d="M35.313 77.813a20.096 20.096 0 002.144 7.374h36.086a20.096 20.096 0 002.144-7.374H35.313z" fill="#1A1A1A"/><path d="M75.781 75.969a20.281 20.281 0 10-40.562 0c0 .623.038 1.235.094 1.844H75.69a21.6 21.6 0 00.09-1.844zm-64.531 0V9.594a1.844 1.844 0 011.844-1.844H9.406a1.844 1.844 0 00-1.844 1.844v66.375a1.844 1.844 0 001.844 1.844h3.688a1.844 1.844 0 01-1.844-1.844z" fill="#DFEAEF"/><path d="M55.5 92.563a16.594 16.594 0 1116.594-16.594A16.613 16.613 0 0155.5 92.563z" fill="#1A1A1A"/><path d="M59.188 88.875a16.564 16.564 0 01-13.416-26.321 16.574 16.574 0 1023.143 23.142 16.49 16.49 0 01-9.728 3.179z" fill="#1A1A1A"/><path d="M55.5 83.344a7.375 7.375 0 100-14.75 7.375 7.375 0 000 14.75z" fill="#FDFEFF"/><path d="M59.188 79.656a7.375 7.375 0 01-7.376-7.375 7.31 7.31 0 01.664-3.024 7.365 7.365 0 109.735 9.736 7.309 7.309 0 01-3.023.663z" fill="#FDFEFF"/><path d="M81.313 22.5H29.687v3.688h51.626V22.5zm0 7.375H29.687v3.688h51.626v-3.688zm0 7.375H29.687v3.688h51.626V37.25zm0 7.375H55.5v3.688h25.813v-3.688zm0 7.375h-14.75v3.688h14.75V52z" fill="#DFEAEF"/></svg>