<svg width="92" height="112" fill="none" xmlns="http://www.w3.org/2000/svg"><path d="M69.154 81.332l-.013.037c-1.297 3.696-2.91 8.296-7.347 9.737a7.863 7.863 0 01-2.433.38c-3.22 0-5.97-1.8-8.62-3.62l6.611 22.305a2.4 2.4 0 004.343.582l4.744-7.659a2.397 2.397 0 012.502-1.092l8.841 1.728a2.404 2.404 0 002.422-.972 2.402 2.402 0 00.104-2.608L69.154 81.332zM33.333 91.486a7.867 7.867 0 01-2.434-.38c-4.092-1.33-5.777-5.34-7.032-8.855l-10.61 17.899a2.398 2.398 0 00.104 2.608 2.407 2.407 0 002.422.972l8.842-1.728a2.397 2.397 0 012.501 1.092l4.744 7.659a2.405 2.405 0 002.36 1.115 2.397 2.397 0 001.982-1.697l6.833-23.051c-.264.179-.518.352-.74.505-2.758 1.899-5.612 3.86-8.972 3.86z" fill="#1A1A1A"/><path d="M91.719 43.559c0-4.45-8.762-7.459-10.066-11.473-1.35-4.16 3.922-11.737 1.401-15.2-2.545-3.497-11.396-.811-14.894-3.355C64.697 11.01 64.532 1.749 60.371.398c-4.015-1.304-9.575 6.049-14.024 6.049-4.45 0-10.009-7.353-14.023-6.05-4.16 1.352-4.326 10.613-7.789 13.133-3.498 2.546-12.349-.141-14.895 3.356-2.52 3.463 2.753 11.04 1.402 15.2C9.738 36.1.976 39.11.976 43.559c0 4.45 8.762 7.459 10.067 11.473 1.35 4.16-3.922 11.737-1.402 15.2 2.546 3.498 11.397.811 14.895 3.356 3.463 2.52 3.628 11.781 7.788 13.133 4.015 1.303 9.575-6.05 14.025-6.05 4.45 0 10.01 7.353 14.024 6.05 4.16-1.351 4.325-10.613 7.788-13.133 3.498-2.545 12.35.142 14.895-3.355 2.52-3.464-2.752-11.04-1.401-15.2 1.302-4.015 10.064-7.024 10.064-11.474zm-45.36 24.193a24.192 24.192 0 110-48.384 24.192 24.192 0 010 48.384z" fill="#1A1A1A"/><path d="M56.983 37.731h-4.541a2.466 2.466 0 01-2.346-1.704l-1.403-4.32a2.466 2.466 0 00-4.691 0l-1.404 4.32a2.466 2.466 0 01-2.345 1.704h-4.542a2.466 2.466 0 00-1.45 4.462l3.675 2.67a2.466 2.466 0 01.896 2.757l-1.404 4.32a2.467 2.467 0 003.795 2.755l3.675-2.669a2.466 2.466 0 012.9 0l3.673 2.67a2.467 2.467 0 003.795-2.758l-1.404-4.32a2.466 2.466 0 01.896-2.756l3.674-2.67a2.466 2.466 0 00-1.449-4.46z" fill="#1A1A1A"/></svg>